<svg width="65" height="65" viewBox="0 0 65 65" fill="none" xmlns="http://www.w3.org/2000/svg">
<rect width="64.5715" height="64.5715" rx="32.2858" fill="white"/>
<path d="M36.5685 14.5904C38.3185 12.3706 40.0109 10.2305 41.7747 8C42.8392 9.04708 43.7178 9.91126 44.4629 10.6442C42.5279 13.2733 40.4804 15.7447 38.7765 18.425C31.8974 29.246 33.0499 39.6757 40.2624 49.7133C41.2587 51.0997 42.3653 52.4088 43.4632 53.8076C42.6035 54.6532 41.7329 55.5095 40.7479 56.4784C35.7359 51.1453 32.0232 45.1193 30.665 37.8784C29.0651 29.3483 31.749 21.7518 36.5685 14.5904Z" fill="url(#paint0_linear_261_31)"/>
<path d="M49.5844 15.6819C49.9549 16.0463 50.2493 16.3359 50.6239 16.7043C46.34 21.0395 42.8742 25.7676 42.6419 32.0309C42.4085 38.3244 45.5432 43.2204 49.6228 47.7488C48.7652 48.5924 47.9101 49.4335 46.9086 50.4186C42.6696 45.5906 39.2629 40.3513 38.8847 33.8098C38.423 25.8247 42.406 19.6488 47.9354 14.0598C48.5067 14.6218 49.0075 15.1144 49.5844 15.6819Z" fill="url(#paint1_linear_261_31)"/>
<path d="M55.8283 43.7035C56.1301 43.3678 56.3523 43.1106 56.5715 42.8567C55.5711 41.7061 54.6043 40.6569 53.7082 39.5525C49.6757 34.5835 49.5948 30.1134 53.433 24.9516C54.1063 24.0462 54.8358 23.1815 55.5724 22.2565C54.6597 21.3588 53.7935 20.5068 52.787 19.5168C49.5238 23.022 46.9207 26.807 46.7341 31.6686C46.5124 37.4427 49.8778 41.6042 53.8497 45.6497C54.5389 44.9718 55.1437 44.3769 55.8283 43.7035Z" fill="url(#paint2_linear_261_31)"/>
<path d="M21.6295 34.3103C22.3431 28.4136 20.0593 23.5658 16.5848 19.11C15.9969 18.3561 15.3492 17.6472 14.6652 16.8423C15.5353 15.9863 16.3943 15.1415 17.4181 14.1344C21.8177 19.1891 25.2583 24.6434 25.6126 31.4916C26.0219 39.4014 20.791 47.1635 16.329 50.891C15.4928 50.0685 14.6533 49.2427 13.7088 48.3137C17.5917 44.3492 20.8523 40.0394 21.6295 34.3103Z" fill="url(#paint3_linear_261_31)"/>
<path d="M8.72694 43.4133C8.43169 43.085 8.21444 42.8334 8 42.5851C8.97845 41.4597 9.92399 40.4336 10.8005 39.3535C14.7444 34.4935 14.8236 30.1215 11.0696 25.073C10.4111 24.1875 9.69763 23.3418 8.97722 22.4371C9.86983 21.5591 10.7171 20.7258 11.7014 19.7575C14.893 23.1857 17.439 26.8877 17.6215 31.6426C17.8383 37.2899 14.5468 41.36 10.6621 45.3168C9.98795 44.6537 9.39643 44.0719 8.72694 43.4133Z" fill="url(#paint4_linear_261_31)"/>
<path d="M21.777 51.4474C24.4404 48.304 26.5757 44.9791 28.3317 41.2268C28.8984 42.9483 29.4297 44.5109 29.9123 46.0914C29.9748 46.2961 29.8362 46.6186 29.7051 46.8428C27.6727 50.3187 25.1945 53.4797 22.342 56.3723C22.2651 56.4503 22.142 56.4845 21.98 56.5715C21.1721 55.7768 20.3657 54.9836 19.4642 54.0969C20.2055 53.2489 20.9564 52.39 21.777 51.4474Z" fill="url(#paint5_linear_261_31)"/>
<path d="M29.4407 22.8683C29.2657 23.3127 29.1219 23.6753 28.8514 24.358C26.9361 19.1989 24.2951 14.795 20.6987 10.9073C21.6617 9.96014 22.5595 9.07707 23.6545 8C24.9603 9.611 26.3143 11.094 27.4468 12.7296C28.6562 14.4764 29.6995 16.3437 30.7154 18.2134C30.9457 18.6371 30.9061 19.3285 30.7423 19.8256C30.4085 20.8382 29.9054 21.8024 29.4407 22.8683Z" fill="url(#paint6_linear_261_31)"/>
<defs>
<linearGradient id="paint0_linear_261_31" x1="56.7327" y1="32.4906" x2="8.28708" y2="32.4906" gradientUnits="userSpaceOnUse">
<stop stop-color="#8706BF"/>
<stop offset="1" stop-color="#DD2A96"/>
</linearGradient>
<linearGradient id="paint1_linear_261_31" x1="56.7327" y1="32.4906" x2="8.28708" y2="32.4906" gradientUnits="userSpaceOnUse">
<stop stop-color="#8706BF"/>
<stop offset="1" stop-color="#DD2A96"/>
</linearGradient>
<linearGradient id="paint2_linear_261_31" x1="56.7327" y1="32.4906" x2="8.28708" y2="32.4906" gradientUnits="userSpaceOnUse">
<stop stop-color="#8706BF"/>
<stop offset="1" stop-color="#DD2A96"/>
</linearGradient>
<linearGradient id="paint3_linear_261_31" x1="56.7327" y1="32.4906" x2="8.28708" y2="32.4906" gradientUnits="userSpaceOnUse">
<stop stop-color="#8706BF"/>
<stop offset="1" stop-color="#DD2A96"/>
</linearGradient>
<linearGradient id="paint4_linear_261_31" x1="56.7327" y1="32.4906" x2="8.28708" y2="32.4906" gradientUnits="userSpaceOnUse">
<stop stop-color="#8706BF"/>
<stop offset="1" stop-color="#DD2A96"/>
</linearGradient>
<linearGradient id="paint5_linear_261_31" x1="56.7327" y1="32.4906" x2="8.28708" y2="32.4906" gradientUnits="userSpaceOnUse">
<stop stop-color="#8706BF"/>
<stop offset="1" stop-color="#DD2A96"/>
</linearGradient>
<linearGradient id="paint6_linear_261_31" x1="56.7327" y1="32.4906" x2="8.28708" y2="32.4906" gradientUnits="userSpaceOnUse">
<stop stop-color="#8706BF"/>
<stop offset="1" stop-color="#DD2A96"/>
</linearGradient>
</defs>
</svg>
