<svg width="292" height="93" viewBox="0 0 292 93" fill="none" xmlns="http://www.w3.org/2000/svg">
<g filter="url(#filter0_d_701_1306)">
<path d="M102.767 58.4474C100.48 58.4474 98.5163 57.9453 96.8757 56.9411C95.245 55.9368 93.9872 54.5497 93.1023 52.7798C92.2273 51 91.7898 48.9517 91.7898 46.6349C91.7898 44.3082 92.2372 42.255 93.1321 40.4751C94.027 38.6854 95.2898 37.2933 96.9205 36.299C98.5611 35.2947 100.5 34.7926 102.737 34.7926C104.597 34.7926 106.242 35.1357 107.674 35.8217C109.116 36.4979 110.264 37.4574 111.119 38.7003C111.974 39.9332 112.462 41.375 112.581 43.0256H107.42C107.212 41.9219 106.714 41.0021 105.929 40.2663C105.153 39.5206 104.114 39.1477 102.812 39.1477C101.708 39.1477 100.739 39.446 99.9034 40.0426C99.0682 40.6293 98.4169 41.4744 97.9496 42.5781C97.4922 43.6818 97.2635 45.0043 97.2635 46.5455C97.2635 48.1065 97.4922 49.4489 97.9496 50.5724C98.407 51.6861 99.0483 52.5462 99.8736 53.1527C100.709 53.7493 101.688 54.0476 102.812 54.0476C103.607 54.0476 104.318 53.8984 104.945 53.6001C105.581 53.2919 106.113 52.8494 106.54 52.2727C106.968 51.696 107.261 50.995 107.42 50.1697H112.581C112.452 51.7905 111.974 53.2273 111.149 54.4801C110.324 55.723 109.2 56.6974 107.778 57.4034C106.357 58.0994 104.686 58.4474 102.767 58.4474ZM125.327 58.4474C123.09 58.4474 121.151 57.9553 119.511 56.9709C117.87 55.9865 116.597 54.6094 115.692 52.8395C114.797 51.0696 114.35 49.0014 114.35 46.6349C114.35 44.2685 114.797 42.1953 115.692 40.4155C116.597 38.6357 117.87 37.2536 119.511 36.2692C121.151 35.2848 123.09 34.7926 125.327 34.7926C127.564 34.7926 129.503 35.2848 131.144 36.2692C132.785 37.2536 134.052 38.6357 134.947 40.4155C135.852 42.1953 136.305 44.2685 136.305 46.6349C136.305 49.0014 135.852 51.0696 134.947 52.8395C134.052 54.6094 132.785 55.9865 131.144 56.9709C129.503 57.9553 127.564 58.4474 125.327 58.4474ZM125.357 54.1222C126.57 54.1222 127.584 53.7891 128.4 53.1229C129.215 52.4467 129.822 51.5419 130.219 50.4084C130.627 49.2749 130.831 48.0121 130.831 46.62C130.831 45.218 130.627 43.9503 130.219 42.8168C129.822 41.6733 129.215 40.7635 128.4 40.0874C127.584 39.4112 126.57 39.0732 125.357 39.0732C124.114 39.0732 123.08 39.4112 122.255 40.0874C121.439 40.7635 120.828 41.6733 120.42 42.8168C120.023 43.9503 119.824 45.218 119.824 46.62C119.824 48.0121 120.023 49.2749 120.42 50.4084C120.828 51.5419 121.439 52.4467 122.255 53.1229C123.08 53.7891 124.114 54.1222 125.357 54.1222ZM144.606 27.4545V58H139.207V27.4545H144.606ZM153.877 27.4545V58H148.478V27.4545H153.877ZM157.749 58V35.0909H163.149V58H157.749ZM160.464 31.8395C159.609 31.8395 158.873 31.5561 158.257 30.9893C157.64 30.4126 157.332 29.7216 157.332 28.9162C157.332 28.1009 157.64 27.4098 158.257 26.843C158.873 26.2663 159.609 25.978 160.464 25.978C161.329 25.978 162.065 26.2663 162.671 26.843C163.288 27.4098 163.596 28.1009 163.596 28.9162C163.596 29.7216 163.288 30.4126 162.671 30.9893C162.065 31.5561 161.329 31.8395 160.464 31.8395ZM176.984 67.0682C175.045 67.0682 173.379 66.8047 171.987 66.2777C170.595 65.7607 169.477 65.0646 168.631 64.1896C167.786 63.3146 167.2 62.3452 166.871 61.2812L171.734 60.103C171.952 60.5504 172.271 60.9929 172.688 61.4304C173.106 61.8778 173.668 62.2457 174.374 62.5341C175.09 62.8324 175.989 62.9815 177.073 62.9815C178.604 62.9815 179.872 62.6087 180.876 61.8629C181.881 61.1271 182.383 59.9141 182.383 58.2237V53.8835H182.114C181.836 54.4403 181.428 55.0121 180.891 55.5987C180.364 56.1854 179.663 56.6776 178.788 57.0753C177.923 57.473 176.835 57.6719 175.522 57.6719C173.762 57.6719 172.166 57.2592 170.734 56.4339C169.313 55.5987 168.179 54.3558 167.334 52.7053C166.499 51.0447 166.081 48.9666 166.081 46.4709C166.081 43.9553 166.499 41.8324 167.334 40.1023C168.179 38.3622 169.318 37.0447 170.749 36.1499C172.181 35.245 173.777 34.7926 175.537 34.7926C176.879 34.7926 177.983 35.0213 178.848 35.4787C179.723 35.9261 180.419 36.468 180.936 37.1044C181.453 37.7308 181.846 38.3224 182.114 38.8793H182.413V35.0909H187.737V58.3729C187.737 60.3317 187.27 61.9524 186.335 63.2351C185.401 64.5178 184.123 65.4773 182.502 66.1136C180.881 66.75 179.042 67.0682 176.984 67.0682ZM177.028 53.4361C178.172 53.4361 179.146 53.1577 179.952 52.6009C180.757 52.044 181.369 51.2436 181.786 50.1996C182.204 49.1555 182.413 47.9027 182.413 46.4411C182.413 44.9993 182.204 43.7365 181.786 42.6527C181.379 41.5689 180.772 40.7287 179.967 40.1321C179.171 39.5256 178.192 39.2223 177.028 39.2223C175.825 39.2223 174.821 39.5355 174.016 40.1619C173.21 40.7884 172.604 41.6484 172.196 42.7422C171.788 43.826 171.585 45.0589 171.585 46.4411C171.585 47.843 171.788 49.071 172.196 50.125C172.614 51.169 173.225 51.9844 174.031 52.571C174.846 53.1477 175.845 53.4361 177.028 53.4361ZM201.733 58.4474C199.436 58.4474 197.452 57.9702 195.782 57.0156C194.121 56.0511 192.843 54.6889 191.949 52.929C191.054 51.1591 190.606 49.076 190.606 46.6797C190.606 44.3232 191.054 42.255 191.949 40.4751C192.853 38.6854 194.116 37.2933 195.737 36.299C197.358 35.2947 199.262 34.7926 201.449 34.7926C202.861 34.7926 204.194 35.0213 205.446 35.4787C206.709 35.9261 207.823 36.6222 208.787 37.5668C209.762 38.5114 210.527 39.7145 211.084 41.1761C211.641 42.6278 211.919 44.358 211.919 46.3665V48.022H193.142V44.3828H206.744C206.734 43.3487 206.51 42.429 206.073 41.6236C205.635 40.8082 205.024 40.1669 204.238 39.6996C203.463 39.2322 202.558 38.9986 201.524 38.9986C200.42 38.9986 199.451 39.267 198.615 39.804C197.78 40.331 197.129 41.027 196.662 41.892C196.204 42.7472 195.971 43.6868 195.961 44.7109V47.8878C195.961 49.2202 196.204 50.3636 196.691 51.3182C197.179 52.2628 197.86 52.9886 198.735 53.4957C199.61 53.9929 200.634 54.2415 201.807 54.2415C202.593 54.2415 203.304 54.1321 203.94 53.9134C204.576 53.6847 205.128 53.3516 205.596 52.9141C206.063 52.4766 206.416 51.9347 206.655 51.2884L211.696 51.8551C211.378 53.1875 210.771 54.3509 209.876 55.3452C208.991 56.3295 207.858 57.0952 206.476 57.642C205.093 58.179 203.513 58.4474 201.733 58.4474ZM220.206 44.5767V58H214.807V35.0909H219.968V38.9837H220.236C220.763 37.701 221.603 36.6818 222.757 35.9261C223.92 35.1705 225.357 34.7926 227.067 34.7926C228.648 34.7926 230.025 35.1307 231.198 35.8068C232.382 36.483 233.296 37.4624 233.943 38.745C234.599 40.0277 234.922 41.5838 234.912 43.4134V58H229.513V44.2486C229.513 42.7173 229.115 41.5192 228.32 40.6541C227.534 39.7891 226.446 39.3565 225.054 39.3565C224.109 39.3565 223.269 39.5653 222.533 39.983C221.807 40.3906 221.235 40.9822 220.818 41.7578C220.41 42.5334 220.206 43.473 220.206 44.5767ZM248.714 58.4474C246.427 58.4474 244.463 57.9453 242.822 56.9411C241.192 55.9368 239.934 54.5497 239.049 52.7798C238.174 51 237.736 48.9517 237.736 46.6349C237.736 44.3082 238.184 42.255 239.079 40.4751C239.974 38.6854 241.236 37.2933 242.867 36.299C244.508 35.2947 246.447 34.7926 248.684 34.7926C250.543 34.7926 252.189 35.1357 253.621 35.8217C255.062 36.4979 256.211 37.4574 257.066 38.7003C257.921 39.9332 258.408 41.375 258.528 43.0256H253.367C253.158 41.9219 252.661 41.0021 251.876 40.2663C251.1 39.5206 250.061 39.1477 248.759 39.1477C247.655 39.1477 246.685 39.446 245.85 40.0426C245.015 40.6293 244.364 41.4744 243.896 42.5781C243.439 43.6818 243.21 45.0043 243.21 46.5455C243.21 48.1065 243.439 49.4489 243.896 50.5724C244.354 51.6861 244.995 52.5462 245.82 53.1527C246.656 53.7493 247.635 54.0476 248.759 54.0476C249.554 54.0476 250.265 53.8984 250.891 53.6001C251.528 53.2919 252.06 52.8494 252.487 52.2727C252.915 51.696 253.208 50.995 253.367 50.1697H258.528C258.398 51.7905 257.921 53.2273 257.096 54.4801C256.271 55.723 255.147 56.6974 253.725 57.4034C252.303 58.0994 250.633 58.4474 248.714 58.4474ZM271.423 58.4474C269.126 58.4474 267.143 57.9702 265.472 57.0156C263.812 56.0511 262.534 54.6889 261.639 52.929C260.744 51.1591 260.297 49.076 260.297 46.6797C260.297 44.3232 260.744 42.255 261.639 40.4751C262.544 38.6854 263.807 37.2933 265.427 36.299C267.048 35.2947 268.952 34.7926 271.14 34.7926C272.552 34.7926 273.884 35.0213 275.137 35.4787C276.4 35.9261 277.513 36.6222 278.478 37.5668C279.452 38.5114 280.218 39.7145 280.775 41.1761C281.332 42.6278 281.61 44.358 281.61 46.3665V48.022H262.832V44.3828H276.435C276.425 43.3487 276.201 42.429 275.763 41.6236C275.326 40.8082 274.714 40.1669 273.929 39.6996C273.153 39.2322 272.248 38.9986 271.214 38.9986C270.111 38.9986 269.141 39.267 268.306 39.804C267.471 40.331 266.819 41.027 266.352 41.892C265.895 42.7472 265.661 43.6868 265.651 44.7109V47.8878C265.651 49.2202 265.895 50.3636 266.382 51.3182C266.869 52.2628 267.55 52.9886 268.425 53.4957C269.3 53.9929 270.324 54.2415 271.498 54.2415C272.283 54.2415 272.994 54.1321 273.631 53.9134C274.267 53.6847 274.819 53.3516 275.286 52.9141C275.753 52.4766 276.106 51.9347 276.345 51.2884L281.386 51.8551C281.068 53.1875 280.462 54.3509 279.567 55.3452C278.682 56.3295 277.548 57.0952 276.166 57.642C274.784 58.179 273.203 58.4474 271.423 58.4474Z" fill="url(#paint0_linear_701_1306)"/>
</g>
<path d="M52.2263 21.9561C54.6367 18.8478 56.9677 15.8511 59.397 12.7278C60.8632 14.194 62.0733 15.4041 63.0996 16.4304C60.4344 20.1119 57.6143 23.5724 55.2674 27.3255C45.7927 42.4777 47.3801 57.0821 57.3141 71.1372C58.6863 73.0786 60.2105 74.9117 61.7226 76.8703C60.5385 78.0544 59.3395 79.2534 57.9828 80.6101C51.0796 73.1425 45.9659 64.7044 44.0953 54.5653C41.8917 42.621 45.5883 31.984 52.2263 21.9561Z" fill="#A915AF"/>
<path d="M70.1536 23.4844C70.6638 23.9947 71.0694 24.4003 71.5852 24.9161C65.685 30.9865 60.9114 37.607 60.5914 46.3773C60.2699 55.1898 64.5875 62.0455 70.2064 68.3865C69.0252 69.5677 67.8475 70.7454 66.4681 72.1248C60.6296 65.3644 55.9375 58.0281 55.4165 48.8683C54.7806 37.687 60.2666 29.0392 67.8823 21.2131C68.6692 22 69.359 22.6898 70.1536 23.4844Z" fill="#BF1EA5"/>
<path d="M74.3595 30.2937C74.8376 29.8142 75.2097 29.4421 75.6605 28.9913C76.9218 30.2526 78.0984 31.4292 79.3494 32.6802C78.1253 34.106 76.795 35.4883 75.6662 37.0181C74.5598 38.5177 73.5561 40.1144 72.689 41.7624C70.964 45.0411 70.7861 48.5109 72.3635 51.7801C73.6393 54.4242 75.4114 56.8255 76.9858 59.3201C77.2595 59.7537 77.645 60.116 78.0259 60.567C76.7648 61.8281 75.5704 63.0225 74.3791 64.2138C65.4342 57.4226 63.7192 44.541 70.51 35.0178C71.6578 33.4081 73.0008 31.9364 74.3595 30.2937Z" fill="#DE2B96"/>
<path d="M31.8931 48.4148C32.8641 40.2581 29.7567 33.5522 25.0293 27.3887C24.2293 26.3458 23.3481 25.3653 22.4173 24.2518C23.6013 23.0678 24.77 21.8992 26.163 20.5061C32.1492 27.4981 36.8306 35.0429 37.3127 44.5157C37.8695 55.4571 30.7523 66.1942 24.6812 71.3502C23.5435 70.2125 22.4012 69.0703 21.1161 67.7852C26.3993 62.3012 30.8356 56.3396 31.8931 48.4148Z" fill="#8706BF"/>
<path d="M14.3377 61.0067C13.936 60.5525 13.6404 60.2045 13.3486 59.861C14.6799 58.3042 15.9664 56.8848 17.159 55.3908C22.5251 48.6681 22.6329 42.6205 17.5252 35.6371C16.6292 34.4122 15.6584 33.2424 14.6782 31.9909C15.8927 30.7765 17.0455 29.6237 18.3848 28.2843C22.7273 33.0265 26.1915 38.1473 26.4398 44.7246C26.7347 52.5364 22.2563 58.1664 16.9706 63.6397C16.0534 62.7225 15.2486 61.9176 14.3377 61.0067Z" fill="#7B01C5"/>
<path d="M32.1444 72.0403C35.7476 67.7167 38.6365 63.1437 41.0122 57.9827C41.7788 60.3504 42.4977 62.4998 43.1506 64.6736C43.2351 64.955 43.0476 65.3986 42.8702 65.707C40.1206 70.4878 36.7679 74.8356 32.9087 78.8141C32.8046 78.9213 32.6381 78.9683 32.419 79.088C31.326 77.995 30.2351 76.9041 29.0154 75.6844C30.0183 74.5181 31.0342 73.3367 32.1444 72.0403Z" fill="#A412B2"/>
<path d="M42.5212 32.5877C42.283 33.2024 42.0875 33.7041 41.7194 34.6484C39.1134 27.512 35.52 21.4202 30.6267 16.0425C31.9369 14.7323 33.1584 13.5108 34.6483 12.0209C36.4251 14.2494 38.2674 16.3007 39.8083 18.5632C41.4538 20.9795 42.8733 23.5624 44.2556 26.1488C44.5689 26.7349 44.5151 27.6912 44.2921 28.3789C43.838 29.7796 43.1535 31.1134 42.5212 32.5877Z" fill="#A412B2"/>
<defs>
<filter id="filter0_d_701_1306" x="81.7898" y="19.978" width="209.82" height="61.0902" filterUnits="userSpaceOnUse" color-interpolation-filters="sRGB">
<feFlood flood-opacity="0" result="BackgroundImageFix"/>
<feColorMatrix in="SourceAlpha" type="matrix" values="0 0 0 0 0 0 0 0 0 0 0 0 0 0 0 0 0 0 127 0" result="hardAlpha"/>
<feOffset dy="4"/>
<feGaussianBlur stdDeviation="5"/>
<feComposite in2="hardAlpha" operator="out"/>
<feColorMatrix type="matrix" values="0 0 0 0 0 0 0 0 0 0 0 0 0 0 0 0 0 0 0.1 0"/>
<feBlend mode="normal" in2="BackgroundImageFix" result="effect1_dropShadow_701_1306"/>
<feBlend mode="normal" in="SourceGraphic" in2="effect1_dropShadow_701_1306" result="shape"/>
</filter>
<linearGradient id="paint0_linear_701_1306" x1="97.5" y1="43" x2="275.5" y2="47" gradientUnits="userSpaceOnUse">
<stop stop-color="#DE2B96"/>
<stop offset="1" stop-color="#7B01C5"/>
</linearGradient>
</defs>
</svg>
